# This file uses centimeters as units for non-parametric coordinates.

mtllib BG_ARCHE.mtl
g default
v 98.450317 -0.000188 100.539528
v 109.016876 247.978394 100.539513
v -109.016785 247.978394 100.539520
v -98.450226 -0.000188 100.539513
v 13.113068 344.618164 100.539520
v -13.113068 344.618164 100.539513
v 76.514099 291.559418 100.539528
v -76.513916 291.559418 100.539513
v 79.050720 191.191605 100.539520
v -79.050720 191.191605 100.539513
v 109.729095 168.120361 100.539513
v -109.729004 168.120361 100.539520
v 110.480072 202.163055 100.539520
v -110.480072 202.163055 100.539520
v -75.287354 0.000000 100.539513
v 75.287384 0.000000 100.539513
v 85.284210 160.424957 100.539520
v -85.284210 160.424957 100.539520
v 85.123199 242.690826 100.539513
v -85.123199 242.690826 100.539513
v 57.085571 280.285126 100.539520
v -57.085266 280.285126 100.539520
v 2.658142 325.833984 100.539513
v -2.658264 325.833984 100.539513
v 50.966217 196.976608 100.539513
v -50.966217 196.976608 100.539520
v 86.032898 214.204666 100.539520
v -86.032990 214.204666 100.539513
v 109.729065 168.120361 311.761597
v 98.450287 -0.000188 311.761597
v 85.284180 160.424957 311.761597
v 75.287354 0.000000 311.761597
v -98.450226 -0.000188 311.761627
v -109.728973 168.120361 311.761597
v -75.287354 0.000000 311.761627
v -85.284180 160.424957 311.761597
v 76.514099 291.559418 311.761597
v 109.016891 247.978394 311.761597
v 57.085571 280.285126 311.761597
v 85.123215 242.690826 311.761597
v -109.016815 247.978394 311.761597
v -76.513947 291.559418 311.761597
v -85.123230 242.690826 311.761597
v -57.085297 280.285126 311.761597
v 13.113052 344.618164 311.761597
v 2.658127 325.833984 311.761597
v -13.113068 344.618164 311.761597
v -2.658279 325.833984 311.761597
v 110.480072 202.163055 311.761597
v 79.050720 191.191605 311.761597
v 86.032898 214.204666 311.761597
v 50.966217 196.976608 311.761597
v -79.050690 191.191605 311.761597
v -110.480072 202.163055 311.761597
v -50.966187 196.976608 311.761597
v -86.032990 214.204666 311.761597
vt 0.546337 0.001875
vt 0.560457 0.212339
vt 0.529855 0.202706
vt 0.517341 0.001876
vt 0.285725 0.212339
vt 0.299845 0.001875
vt 0.328842 0.001876
vt 0.316327 0.202706
vt 0.559565 0.312311
vt 0.518876 0.366868
vt 0.494554 0.352754
vt 0.529654 0.305691
vt 0.327306 0.366868
vt 0.286617 0.312311
vt 0.316528 0.305691
vt 0.351628 0.352754
vt 0.439507 0.433291
vt 0.426419 0.409775
vt 0.406675 0.433291
vt 0.419763 0.409775
vt 0.522052 0.241221
vt 0.561397 0.254956
vt 0.530792 0.270031
vt 0.486894 0.248464
vt 0.284785 0.254956
vt 0.324130 0.241221
vt 0.359288 0.248464
vt 0.315389 0.270031
vt 0.546337 0.001875
vt 0.560457 0.212339
vt 0.529855 0.202706
vt 0.517341 0.001876
vt 0.285725 0.212339
vt 0.299845 0.001875
vt 0.328842 0.001876
vt 0.316327 0.202706
vt 0.559565 0.312311
vt 0.518876 0.366868
vt 0.494554 0.352754
vt 0.529654 0.305691
vt 0.327306 0.366868
vt 0.286617 0.312311
vt 0.316528 0.305691
vt 0.351628 0.352754
vt 0.439507 0.433291
vt 0.426419 0.409775
vt 0.406675 0.433291
vt 0.419763 0.409775
vt 0.522052 0.241221
vt 0.561397 0.254956
vt 0.530792 0.270031
vt 0.486894 0.248464
vt 0.284785 0.254956
vt 0.324130 0.241221
vt 0.359288 0.248464
vt 0.315389 0.270031
vn 0.000000 0.000000 1.000000
vn 0.000000 0.000000 1.000000
vn 0.000000 0.000000 1.000000
vn 0.000000 0.000000 1.000000
vn 0.000000 0.000000 1.000000
vn 0.000000 0.000000 1.000000
vn 0.000000 0.000000 1.000000
vn 0.000000 0.000000 1.000000
vn 0.000001 0.000000 1.000000
vn 0.000001 0.000000 1.000000
vn 0.000001 0.000000 1.000000
vn 0.000001 0.000000 1.000000
vn -0.000001 0.000000 1.000000
vn -0.000001 0.000000 1.000000
vn -0.000001 0.000000 1.000000
vn -0.000001 0.000000 1.000000
vn -0.000000 0.000000 1.000000
vn -0.000000 0.000000 1.000000
vn -0.000000 0.000000 1.000000
vn -0.000000 0.000000 1.000000
vn 0.000000 0.000000 1.000000
vn 0.000000 0.000000 1.000000
vn 0.000000 0.000000 1.000000
vn 0.000000 0.000000 1.000000
vn -0.000000 0.000000 1.000000
vn -0.000000 0.000000 1.000000
vn -0.000000 0.000000 1.000000
vn -0.000000 0.000000 1.000000
vn 0.000000 0.000000 1.000000
vn 0.000000 0.000000 1.000000
vn 0.000000 0.000000 1.000000
vn 0.000000 0.000000 1.000000
vn 0.000000 0.000000 1.000000
vn 0.000000 0.000000 1.000000
vn 0.000000 0.000000 1.000000
vn 0.000000 0.000000 1.000000
vn 0.000001 0.000000 1.000000
vn 0.000001 0.000000 1.000000
vn 0.000001 0.000000 1.000000
vn 0.000001 0.000000 1.000000
vn 0.000000 0.000000 1.000000
vn 0.000000 0.000000 1.000000
vn 0.000000 0.000000 1.000000
vn 0.000000 0.000000 1.000000
vn -0.000001 0.000000 1.000000
vn -0.000001 0.000000 1.000000
vn -0.000001 0.000000 1.000000
vn -0.000001 0.000000 1.000000
vn 0.000001 0.000000 1.000000
vn 0.000001 0.000000 1.000000
vn 0.000001 0.000000 1.000000
vn 0.000001 0.000000 1.000000
vn 0.997757 -0.066937 0.000000
vn 0.997757 -0.066937 0.000000
vn 0.997757 -0.066937 0.000000
vn 0.997757 -0.066937 0.000000
vn -0.998064 0.062194 -0.000000
vn -0.998064 0.062194 -0.000000
vn -0.998064 0.062194 -0.000000
vn -0.998064 0.062194 -0.000000
vn -0.000008 -1.000000 -0.000000
vn -0.000008 -1.000000 -0.000000
vn -0.000008 -1.000000 -0.000000
vn -0.000008 -1.000000 -0.000000
vn -0.997757 -0.066937 0.000000
vn -0.997757 -0.066937 0.000000
vn -0.997757 -0.066937 0.000000
vn -0.997757 -0.066937 0.000000
vn 0.000008 -1.000000 0.000000
vn 0.000008 -1.000000 0.000000
vn 0.000008 -1.000000 0.000000
vn 0.000008 -1.000000 0.000000
vn 0.998064 0.062194 -0.000000
vn 0.998064 0.062194 -0.000000
vn 0.998064 0.062194 -0.000000
vn 0.998064 0.062194 -0.000000
vn 0.801613 0.597844 -0.000000
vn 0.709804 0.704399 -0.000000
vn 0.709804 0.704399 -0.000000
vn 0.801613 0.597844 -0.000000
vn -0.709996 -0.704206 -0.000000
vn -0.801615 -0.597841 0.000000
vn -0.801615 -0.597841 0.000000
vn -0.709996 -0.704206 -0.000000
vn -0.709805 0.704399 -0.000000
vn -0.801612 0.597845 -0.000000
vn -0.801612 0.597845 -0.000000
vn -0.709805 0.704398 -0.000000
vn 0.801612 -0.597845 0.000000
vn 0.709997 -0.704205 0.000000
vn 0.709997 -0.704205 0.000000
vn 0.801612 -0.597845 0.000000
vn 0.641786 0.766884 0.000000
vn 0.641786 0.766884 0.000000
vn -0.641785 -0.766885 -0.000000
vn -0.641785 -0.766885 -0.000000
vn 0.000000 1.000000 0.000000
vn 0.000000 1.000000 0.000000
vn 0.000000 1.000000 0.000000
vn 0.000000 1.000000 0.000000
vn 0.000000 -1.000000 0.000000
vn 0.000000 -1.000000 0.000000
vn 0.000000 -1.000000 0.000000
vn 0.000000 -1.000000 0.000000
vn -0.641787 0.766883 0.000000
vn -0.641787 0.766883 0.000000
vn 0.641788 -0.766882 0.000000
vn 0.641788 -0.766882 0.000000
vn 0.329579 -0.944128 0.000000
vn 0.329579 -0.944128 0.000000
vn 0.329579 -0.944128 0.000000
vn 0.329579 -0.944128 0.000000
vn -0.440952 0.897531 0.000000
vn -0.440952 0.897531 0.000000
vn -0.440952 0.897531 0.000000
vn -0.440952 0.897531 0.000000
vn -0.329579 -0.944128 0.000000
vn -0.329579 -0.944128 0.000000
vn -0.329579 -0.944128 0.000000
vn -0.329579 -0.944128 0.000000
vn 0.440950 0.897532 -0.000000
vn 0.440950 0.897532 -0.000000
vn 0.440950 0.897532 -0.000000
vn 0.440950 0.897532 -0.000000
vn 0.601041 0.799218 0.000000
vn 0.601041 0.799218 0.000000
vn 0.601041 0.799218 0.000000
vn 0.601041 0.799218 0.000000
vn -0.729031 -0.684480 -0.000000
vn -0.729032 -0.684480 -0.000000
vn -0.729032 -0.684480 -0.000000
vn -0.729032 -0.684480 -0.000000
vn -0.601042 0.799217 0.000000
vn -0.601042 0.799217 0.000000
vn -0.601042 0.799217 0.000000
vn -0.601042 0.799217 0.000000
vn 0.729031 -0.684481 -0.000000
vn 0.729031 -0.684481 -0.000000
vn 0.729031 -0.684481 -0.000000
vn 0.729031 -0.684481 -0.000000
vn 0.999490 0.031920 -0.000000
vn 0.999490 0.031920 -0.000000
vn 0.999490 0.031920 -0.000000
vn 0.999490 0.031920 -0.000000
vn -0.999491 -0.031918 0.000000
vn -0.999490 -0.031918 0.000000
vn -0.999491 -0.031918 0.000000
vn -0.999491 -0.031918 0.000000
vn -0.999490 0.031922 -0.000000
vn -0.999490 0.031922 -0.000000
vn -0.999490 0.031922 -0.000000
vn -0.999490 0.031922 -0.000000
vn 0.999490 -0.031921 0.000000
vn 0.999490 -0.031921 0.000000
vn 0.999490 -0.031921 0.000000
vn 0.999490 -0.031921 0.000000
vn 0.000000 -0.000000 -1.000000
vn 0.000000 -0.000000 -1.000000
vn 0.000000 -0.000000 -1.000000
vn 0.000000 -0.000000 -1.000000
vn 0.000000 0.000000 -1.000000
vn 0.000000 0.000000 -1.000000
vn 0.000000 0.000000 -1.000000
vn 0.000000 0.000000 -1.000000
vn 0.000000 -0.000000 -1.000000
vn 0.000000 -0.000000 -1.000000
vn 0.000000 -0.000000 -1.000000
vn 0.000000 -0.000000 -1.000000
vn -0.000000 -0.000000 -1.000000
vn -0.000000 -0.000000 -1.000000
vn -0.000000 -0.000000 -1.000000
vn -0.000000 -0.000000 -1.000000
vn -0.000000 0.000000 -1.000000
vn -0.000000 0.000000 -1.000000
vn -0.000000 0.000000 -1.000000
vn -0.000000 0.000000 -1.000000
vn -0.000000 0.000000 -1.000000
vn -0.000000 0.000000 -1.000000
vn -0.000000 0.000000 -1.000000
vn -0.000000 0.000000 -1.000000
vn 0.000000 0.000000 -1.000000
vn 0.000000 0.000000 -1.000000
vn 0.000000 0.000000 -1.000000
vn 0.000000 0.000000 -1.000000
vn 0.000000 -0.000000 -1.000000
vn 0.000000 -0.000000 -1.000000
vn 0.000000 -0.000000 -1.000000
vn 0.000000 -0.000000 -1.000000
vn 0.000000 0.000000 -1.000000
vn 0.000000 0.000000 -1.000000
vn 0.000000 0.000000 -1.000000
vn 0.000000 0.000000 -1.000000
vn -0.000000 0.000000 -1.000000
vn -0.000000 0.000000 -1.000000
vn -0.000000 0.000000 -1.000000
vn -0.000000 0.000000 -1.000000
vn 0.000000 -0.000000 -1.000000
vn 0.000000 -0.000000 -1.000000
vn 0.000000 -0.000000 -1.000000
vn 0.000000 -0.000000 -1.000000
vn -0.000000 -0.000000 -1.000000
vn -0.000000 -0.000000 -1.000000
vn -0.000000 -0.000000 -1.000000
vn -0.000000 -0.000000 -1.000000
vn -0.000000 0.000000 -1.000000
vn -0.000000 0.000000 -1.000000
vn -0.000000 0.000000 -1.000000
vn -0.000000 0.000000 -1.000000
s off
g Spawn_Zone
usemtl Spawn_ZoneSG
f 30/29/1 29/30/2 31/31/3 32/32/4
f 34/33/5 33/34/6 35/35/7 36/36/8
f 38/37/9 37/38/10 39/39/11 40/40/12
f 42/41/13 41/42/14 43/43/15 44/44/16
f 37/38/17 45/45/18 46/46/19 39/39/20
f 45/45/21 47/47/22 48/48/23 46/46/24
f 47/47/25 42/41/26 44/44/27 48/48/28
f 50/49/29 49/50/30 51/51/31 52/52/32
f 54/53/33 53/54/34 55/55/35 56/56/36
f 29/30/37 50/49/38 52/52/39 31/31/40
f 53/54/41 34/33/42 36/36/43 55/55/44
f 49/50/45 38/37/46 40/40/47 51/51/48
f 41/42/49 54/53/50 56/56/51 43/43/52
f 1/1/53 11/2/54 29/30/55 30/29/56
f 17/3/57 16/4/58 32/32/59 31/31/60
f 16/4/61 1/1/62 30/29/63 32/32/64
f 12/5/65 4/6/66 33/34/67 34/33/68
f 4/6/69 15/7/70 35/35/71 33/34/72
f 15/7/73 18/8/74 36/36/75 35/35/76
s 1
f 2/9/77 7/10/78 37/38/79 38/37/80
s 2
f 21/11/81 19/12/82 40/40/83 39/39/84
s 3
f 8/13/85 3/14/86 41/42/87 42/41/88
s 4
f 20/15/89 22/16/90 44/44/91 43/43/92
s 1
f 7/10/78 5/17/93 45/45/94 37/38/79
s 2
f 23/18/95 21/11/81 39/39/84 46/46/96
s off
f 5/17/97 6/19/98 47/47/99 45/45/100
f 24/20/101 23/18/102 46/46/103 48/48/104
s 3
f 6/19/105 8/13/85 42/41/88 47/47/106
s 4
f 22/16/90 24/20/107 48/48/108 44/44/91
s off
f 9/21/109 13/22/110 49/50/111 50/49/112
f 27/23/113 25/24/114 52/52/115 51/51/116
f 14/25/117 10/26/118 53/54/119 54/53/120
f 26/27/121 28/28/122 56/56/123 55/55/124
f 11/2/125 9/21/126 50/49/127 29/30/128
f 25/24/129 17/3/130 31/31/131 52/52/132
f 10/26/133 12/5/134 34/33/135 53/54/136
f 18/8/137 26/27/138 55/55/139 36/36/140
f 13/22/141 2/9/142 38/37/143 49/50/144
f 19/12/145 27/23/146 51/51/147 40/40/148
f 3/14/149 14/25/150 54/53/151 41/42/152
f 28/28/153 20/15/154 43/43/155 56/56/156
f 11/2/157 1/1/158 16/4/159 17/3/160
f 9/21/161 11/2/162 17/3/163 25/24/164
f 13/22/165 9/21/166 25/24/167 27/23/168
f 2/9/169 13/22/170 27/23/171 19/12/172
f 7/10/173 2/9/174 19/12/175 21/11/176
f 5/17/177 7/10/178 21/11/179 23/18/180
f 6/19/181 5/17/182 23/18/183 24/20/184
f 8/13/185 6/19/186 24/20/187 22/16/188
f 3/14/189 8/13/190 22/16/191 20/15/192
f 14/25/193 3/14/194 20/15/195 28/28/196
f 10/26/197 14/25/198 28/28/199 26/27/200
f 12/5/201 10/26/202 26/27/203 18/8/204
f 4/6/205 12/5/206 18/8/207 15/7/208
