# This file uses centimeters as units for non-parametric coordinates.

mtllib BG_Building_01.mtl
g default
v 0.000000 0.000000 0.000000
v 0.000000 375.276021 0.000000
v 0.000000 375.276021 -703.269562
v 0.000000 0.000000 -703.269562
v 703.269379 0.000000 -35.159943
v 668.109589 0.000000 0.000000
v 703.269379 375.276021 -35.159943
v 668.109589 375.276021 0.000000
v 668.109589 375.276021 -703.269562
v 703.269379 375.276021 -668.109619
v 703.269379 0.000000 -668.109619
v 668.109589 0.000000 -703.269562
v 33.572662 372.692250 -33.572678
v 637.893768 372.692250 -33.572678
v 669.696869 372.692250 -65.375717
v 669.696869 372.692250 -637.893860
v 637.893768 372.692250 -669.696930
v 33.572662 372.692250 -669.696930
v 33.572662 338.053273 -33.572678
v 637.893768 338.053273 -33.572678
v 669.696869 338.053273 -65.375717
v 669.696869 338.053273 -637.893860
v 637.893768 338.053273 -669.696930
v 33.572662 338.053273 -669.696930
v -27.566040 239.115773 -628.256317
v 38.557465 239.115773 -628.256317
v -27.566040 270.972493 -628.256317
v 38.557465 270.972493 -628.256317
v -27.566040 270.972493 -660.113037
v 38.557465 270.972493 -660.113037
v -27.566040 239.115773 -660.113037
v 38.557465 239.115773 -660.113037
v -27.566040 239.115773 -51.712646
v 38.557465 239.115773 -51.712646
v -27.566040 270.972493 -51.712646
v 38.557465 270.972493 -51.712646
v -27.566040 270.972493 -83.569366
v 38.557465 270.972493 -83.569366
v -27.566040 239.115773 -83.569366
v 38.557465 239.115773 -83.569366
vt 0.375000 0.000000
vt 0.612501 0.000000
vt 0.617776 0.240616
vt 0.373647 0.241782
vt 0.393540 0.262346
vt 0.601189 0.263295
vt 0.611664 0.274196
vt 0.601650 0.477145
vt 0.591065 0.485476
vt 0.389870 0.487658
vt 0.369922 0.509311
vt 0.604318 0.505066
vt 0.627604 0.724729
vt 0.390635 0.770957
vt 0.644605 0.727795
vt 0.712215 0.935443
vt 0.704049 0.951142
vt 0.469418 1.023385
vt 0.635548 0.240770
vt 0.637499 0.000000
vt 0.862501 0.000000
vt 0.862205 0.242321
vt 0.125000 0.000000
vt 0.123213 0.241744
vt 0.622324 0.497881
vt 0.605634 0.252388
vt 0.385202 0.254272
vt 0.634896 0.258012
vt 0.622539 0.269790
vt 0.611885 0.483129
vt 0.594560 0.495105
vt 0.381843 0.496319
vt 0.375000 0.000000
vt 0.625000 0.000000
vt 0.625000 0.250000
vt 0.375000 0.250000
vt 0.625000 0.500000
vt 0.375000 0.500000
vt 0.625000 0.750000
vt 0.375000 0.750000
vt 0.625000 1.000000
vt 0.375000 1.000000
vt 0.875000 0.000000
vt 0.875000 0.250000
vt 0.125000 0.000000
vt 0.125000 0.250000
vt 0.375000 0.000000
vt 0.625000 0.000000
vt 0.625000 0.250000
vt 0.375000 0.250000
vt 0.625000 0.500000
vt 0.375000 0.500000
vt 0.625000 0.750000
vt 0.375000 0.750000
vt 0.625000 1.000000
vt 0.375000 1.000000
vt 0.875000 0.000000
vt 0.875000 0.250000
vt 0.125000 0.000000
vt 0.125000 0.250000
vn 0.000000 0.000000 1.000000
vn 0.000000 0.000000 1.000000
vn 0.000000 0.000000 1.000000
vn 0.000000 0.000000 1.000000
vn 0.000000 1.000000 0.000000
vn 0.000000 1.000000 0.000000
vn 0.000000 1.000000 0.000000
vn 0.000000 1.000000 0.000000
vn 0.000000 1.000000 0.000000
vn 0.000000 1.000000 0.000000
vn 0.000000 0.000000 -1.000000
vn 0.000000 0.000000 -1.000000
vn 0.000000 0.000000 -1.000000
vn 0.000000 0.000000 -1.000000
vn 0.000000 -1.000000 0.000000
vn 0.000000 -1.000000 0.000000
vn 0.000000 -1.000000 0.000000
vn 0.000000 -1.000000 0.000000
vn 0.000000 -1.000000 0.000000
vn 0.000000 -1.000000 0.000000
vn 1.000000 0.000000 0.000000
vn 1.000000 0.000000 0.000000
vn 1.000000 0.000000 0.000000
vn 1.000000 0.000000 0.000000
vn -1.000000 0.000000 0.000000
vn -1.000000 0.000000 0.000000
vn -1.000000 0.000000 0.000000
vn -1.000000 0.000000 0.000000
vn 0.707108 0.000000 0.707106
vn 0.707108 0.000000 0.707106
vn 0.707108 0.000000 0.707106
vn 0.707108 0.000000 0.707106
vn 0.707108 0.000000 -0.707106
vn 0.707108 0.000000 -0.707106
vn 0.707108 0.000000 -0.707106
vn 0.707108 0.000000 -0.707106
vn 0.000000 0.997052 -0.076733
vn 0.000000 0.997052 -0.076733
vn 0.000000 0.997052 -0.076733
vn 0.000000 0.997052 -0.076733
vn -0.040439 0.998363 -0.040439
vn -0.040439 0.998363 -0.040439
vn -0.040439 0.998363 -0.040439
vn -0.040439 0.998363 -0.040439
vn -0.076733 0.997052 0.000000
vn -0.076733 0.997052 0.000000
vn -0.076733 0.997052 0.000000
vn -0.076733 0.997052 0.000000
vn -0.040439 0.998363 0.040439
vn -0.040439 0.998363 0.040439
vn -0.040439 0.998363 0.040439
vn -0.040439 0.998363 0.040439
vn 0.000000 0.997052 0.076734
vn 0.000000 0.997052 0.076734
vn 0.000000 0.997052 0.076734
vn 0.000000 0.997052 0.076734
vn 0.076733 0.997052 0.000000
vn 0.076733 0.997052 0.000000
vn 0.076733 0.997052 0.000000
vn 0.076733 0.997052 0.000000
vn 0.000000 0.000000 -1.000000
vn 0.000000 0.000000 -1.000000
vn 0.000000 0.000000 -1.000000
vn 0.000000 0.000000 -1.000000
vn -0.707107 0.000000 -0.707107
vn -0.707107 0.000000 -0.707107
vn -0.707107 0.000000 -0.707107
vn -0.707107 0.000000 -0.707107
vn -1.000000 0.000000 0.000000
vn -1.000000 0.000000 0.000000
vn -1.000000 0.000000 0.000000
vn -1.000000 0.000000 0.000000
vn -0.707107 0.000000 0.707106
vn -0.707107 0.000000 0.707106
vn -0.707107 0.000000 0.707106
vn -0.707107 0.000000 0.707106
vn 0.000000 0.000000 1.000000
vn 0.000000 0.000000 1.000000
vn 0.000000 0.000000 1.000000
vn 0.000000 0.000000 1.000000
vn 1.000000 0.000000 0.000000
vn 1.000000 0.000000 0.000000
vn 1.000000 0.000000 0.000000
vn 1.000000 0.000000 0.000000
vn 0.000000 0.000000 1.000000
vn 0.000000 0.000000 1.000000
vn 0.000000 0.000000 1.000000
vn 0.000000 0.000000 1.000000
vn 0.000000 1.000000 0.000000
vn 0.000000 1.000000 0.000000
vn 0.000000 1.000000 0.000000
vn 0.000000 1.000000 0.000000
vn 0.000000 0.000000 -1.000000
vn 0.000000 0.000000 -1.000000
vn 0.000000 0.000000 -1.000000
vn 0.000000 0.000000 -1.000000
vn 0.000000 -1.000000 0.000000
vn 0.000000 -1.000000 0.000000
vn 0.000000 -1.000000 0.000000
vn 0.000000 -1.000000 0.000000
vn 1.000000 0.000000 0.000000
vn 1.000000 0.000000 0.000000
vn 1.000000 0.000000 0.000000
vn 1.000000 0.000000 0.000000
vn -1.000000 0.000000 0.000000
vn -1.000000 0.000000 0.000000
vn -1.000000 0.000000 0.000000
vn -1.000000 0.000000 0.000000
vn 0.000000 0.000000 1.000000
vn 0.000000 0.000000 1.000000
vn 0.000000 0.000000 1.000000
vn 0.000000 0.000000 1.000000
vn 0.000000 1.000000 0.000000
vn 0.000000 1.000000 0.000000
vn 0.000000 1.000000 0.000000
vn 0.000000 1.000000 0.000000
vn 0.000000 0.000000 -1.000000
vn 0.000000 0.000000 -1.000000
vn 0.000000 0.000000 -1.000000
vn 0.000000 0.000000 -1.000000
vn 0.000000 -1.000000 0.000000
vn 0.000000 -1.000000 0.000000
vn 0.000000 -1.000000 0.000000
vn 0.000000 -1.000000 0.000000
vn 1.000000 0.000000 0.000000
vn 1.000000 0.000000 0.000000
vn 1.000000 0.000000 0.000000
vn 1.000000 0.000000 0.000000
vn -1.000000 0.000000 0.000000
vn -1.000000 0.000000 0.000000
vn -1.000000 0.000000 0.000000
vn -1.000000 0.000000 0.000000
s off
g Building_01
usemtl initialShadingGroup
f 1/1/1 6/2/2 8/3/3 2/4/4
f 19/5/5 20/6/6 21/7/7 22/8/8 23/9/9 24/10/10
f 3/11/11 9/12/12 12/13/13 4/14/14
f 4/14/15 12/13/16 11/15/17 5/16/18 6/17/19 1/18/20
f 7/19/21 5/20/22 11/21/23 10/22/24
f 4/23/25 1/1/26 2/4/27 3/24/28
f 6/2/29 5/20/30 7/19/31 8/3/32
f 9/12/33 10/25/34 11/15/35 12/13/36
f 2/4/37 8/3/38 14/26/39 13/27/40
f 8/3/41 7/28/42 15/29/43 14/26/44
f 7/28/45 10/25/46 16/30/47 15/29/48
f 10/25/49 9/12/50 17/31/51 16/30/52
f 9/12/53 3/11/54 18/32/55 17/31/56
f 3/11/57 2/4/58 13/27/59 18/32/60
f 13/27/61 14/26/62 20/6/63 19/5/64
f 14/26/65 15/29/66 21/7/67 20/6/68
f 15/29/69 16/30/70 22/8/71 21/7/72
f 16/30/73 17/31/74 23/9/75 22/8/76
f 17/31/77 18/32/78 24/10/79 23/9/80
f 18/32/81 13/27/82 19/5/83 24/10/84
f 25/33/85 26/34/86 28/35/87 27/36/88
f 27/36/89 28/35/90 30/37/91 29/38/92
f 29/38/93 30/37/94 32/39/95 31/40/96
f 31/40/97 32/39/98 26/41/99 25/42/100
f 26/34/101 32/43/102 30/44/103 28/35/104
f 31/45/105 25/33/106 27/36/107 29/46/108
f 33/47/109 34/48/110 36/49/111 35/50/112
f 35/50/113 36/49/114 38/51/115 37/52/116
f 37/52/117 38/51/118 40/53/119 39/54/120
f 39/54/121 40/53/122 34/55/123 33/56/124
f 34/48/125 40/57/126 38/58/127 36/49/128
f 39/59/129 33/47/130 35/50/131 37/60/132
