# This file uses centimeters as units for non-parametric coordinates.

mtllib BG_Building_03.mtl
g default
v 0.000000 0.000000 403.377441
v 0.000000 380.164825 403.377441
v 0.000000 380.164825 0.000000
v 0.000000 0.000000 0.000000
v 703.269409 0.000000 368.217529
v 668.109619 0.000000 403.377441
v 703.269409 380.164825 368.217529
v 668.109619 380.164825 403.377441
v 668.109619 380.164825 0.000000
v 703.269409 380.164825 35.159912
v 703.269409 0.000000 35.159912
v 668.109619 0.000000 0.000000
v 33.572662 377.580994 369.804810
v 637.893799 377.580994 369.804810
v 669.696899 377.580994 338.001709
v 669.696899 377.580994 65.375732
v 637.893799 377.580994 33.572632
v 33.572662 377.580994 33.572632
v 33.572662 342.942017 369.804810
v 637.893799 342.942017 369.804810
v 669.696899 342.942017 338.001709
v 669.696899 342.942017 65.375732
v 637.893799 342.942017 33.572632
v 33.572662 342.942017 33.572632
v 38.557465 244.004578 75.013184
v 38.557465 275.861206 75.013184
v 38.557465 275.861206 43.156494
v 38.557465 244.004578 43.156494
v -27.566040 244.004578 351.664795
v 38.557465 244.004578 351.664795
v -27.566040 275.861206 351.664795
v 38.557465 275.861206 351.664795
v -27.566040 275.861206 319.808105
v 38.557465 275.861206 319.808105
v -27.566040 244.004578 319.808105
v 38.557465 244.004578 319.808105
vt 0.375000 0.000000
vt 0.612501 0.000000
vt 0.617776 0.240616
vt 0.373647 0.241782
vt 0.393540 0.262346
vt 0.601189 0.263295
vt 0.611664 0.274196
vt 0.601650 0.477145
vt 0.591065 0.485476
vt 0.389870 0.487658
vt 0.369922 0.509311
vt 0.604318 0.505066
vt 0.627604 0.724729
vt 0.390635 0.770957
vt 0.644605 0.727795
vt 0.712215 0.935443
vt 0.704049 0.951142
vt 0.469418 1.023385
vt 0.635548 0.240770
vt 0.637499 0.000000
vt 0.862501 0.000000
vt 0.862205 0.242321
vt 0.125000 0.000000
vt 0.123213 0.241744
vt 0.622324 0.497881
vt 0.605634 0.252388
vt 0.385202 0.254272
vt 0.634896 0.258012
vt 0.622539 0.269790
vt 0.611885 0.483129
vt 0.594560 0.495105
vt 0.381843 0.496319
vt 0.625000 0.000000
vt 0.875000 0.000000
vt 0.875000 0.250000
vt 0.625000 0.250000
vt 0.375000 0.000000
vt 0.625000 0.000000
vt 0.625000 0.250000
vt 0.375000 0.250000
vt 0.625000 0.500000
vt 0.375000 0.500000
vt 0.625000 0.750000
vt 0.375000 0.750000
vt 0.625000 1.000000
vt 0.375000 1.000000
vt 0.875000 0.000000
vt 0.875000 0.250000
vt 0.125000 0.000000
vt 0.125000 0.250000
vn 0.000000 0.000000 1.000000
vn 0.000000 0.000000 1.000000
vn 0.000000 0.000000 1.000000
vn 0.000000 0.000000 1.000000
vn 0.000000 1.000000 0.000000
vn 0.000000 1.000000 0.000000
vn 0.000000 1.000000 0.000000
vn 0.000000 1.000000 0.000000
vn 0.000000 1.000000 0.000000
vn 0.000000 1.000000 0.000000
vn 0.000000 0.000000 -1.000000
vn 0.000000 0.000000 -1.000000
vn 0.000000 0.000000 -1.000000
vn 0.000000 0.000000 -1.000000
vn 0.000000 -1.000000 0.000000
vn 0.000000 -1.000000 0.000000
vn 0.000000 -1.000000 0.000000
vn 0.000000 -1.000000 0.000000
vn 0.000000 -1.000000 0.000000
vn 0.000000 -1.000000 0.000000
vn 1.000000 0.000000 0.000000
vn 1.000000 0.000000 0.000000
vn 1.000000 0.000000 0.000000
vn 1.000000 0.000000 0.000000
vn -1.000000 0.000000 0.000000
vn -1.000000 0.000000 0.000000
vn -1.000000 0.000000 0.000000
vn -1.000000 0.000000 0.000000
vn 0.707108 0.000000 0.707106
vn 0.707108 0.000000 0.707106
vn 0.707108 0.000000 0.707106
vn 0.707108 0.000000 0.707106
vn 0.707108 0.000000 -0.707106
vn 0.707108 0.000000 -0.707106
vn 0.707108 0.000000 -0.707106
vn 0.707108 0.000000 -0.707106
vn 0.000000 0.997052 -0.076735
vn 0.000000 0.997052 -0.076735
vn 0.000000 0.997052 -0.076735
vn 0.000000 0.997052 -0.076735
vn -0.040440 0.998363 -0.040440
vn -0.040440 0.998363 -0.040440
vn -0.040440 0.998363 -0.040440
vn -0.040440 0.998363 -0.040440
vn -0.076736 0.997051 0.000000
vn -0.076736 0.997051 0.000000
vn -0.076736 0.997051 0.000000
vn -0.076736 0.997051 0.000000
vn -0.040440 0.998363 0.040440
vn -0.040440 0.998363 0.040440
vn -0.040440 0.998363 0.040440
vn -0.040440 0.998363 0.040440
vn 0.000000 0.997052 0.076735
vn 0.000000 0.997052 0.076735
vn 0.000000 0.997052 0.076735
vn 0.000000 0.997052 0.076735
vn 0.076735 0.997052 0.000000
vn 0.076735 0.997052 0.000000
vn 0.076735 0.997052 0.000000
vn 0.076735 0.997052 0.000000
vn 0.000000 0.000000 -1.000000
vn 0.000000 0.000000 -1.000000
vn 0.000000 0.000000 -1.000000
vn 0.000000 0.000000 -1.000000
vn -0.707107 0.000000 -0.707106
vn -0.707107 0.000000 -0.707106
vn -0.707107 0.000000 -0.707106
vn -0.707107 0.000000 -0.707106
vn -1.000000 0.000000 0.000000
vn -1.000000 0.000000 0.000000
vn -1.000000 0.000000 0.000000
vn -1.000000 0.000000 0.000000
vn -0.707108 0.000000 0.707106
vn -0.707108 0.000000 0.707106
vn -0.707108 0.000000 0.707106
vn -0.707108 0.000000 0.707106
vn 0.000000 0.000000 1.000000
vn 0.000000 0.000000 1.000000
vn 0.000000 0.000000 1.000000
vn 0.000000 0.000000 1.000000
vn 1.000000 0.000000 0.000000
vn 1.000000 0.000000 0.000000
vn 1.000000 0.000000 0.000000
vn 1.000000 0.000000 0.000000
vn 1.000000 0.000000 0.000000
vn 1.000000 0.000000 0.000000
vn 1.000000 0.000000 0.000000
vn 1.000000 0.000000 0.000000
vn 0.000000 0.000000 1.000000
vn 0.000000 0.000000 1.000000
vn 0.000000 0.000000 1.000000
vn 0.000000 0.000000 1.000000
vn 0.000000 1.000000 0.000000
vn 0.000000 1.000000 0.000000
vn 0.000000 1.000000 0.000000
vn 0.000000 1.000000 0.000000
vn 0.000000 0.000000 -1.000000
vn 0.000000 0.000000 -1.000000
vn 0.000000 0.000000 -1.000000
vn 0.000000 0.000000 -1.000000
vn 0.000000 -1.000000 0.000000
vn 0.000000 -1.000000 0.000000
vn 0.000000 -1.000000 0.000000
vn 0.000000 -1.000000 0.000000
vn 1.000000 0.000000 0.000000
vn 1.000000 0.000000 0.000000
vn 1.000000 0.000000 0.000000
vn 1.000000 0.000000 0.000000
vn -1.000000 0.000000 0.000000
vn -1.000000 0.000000 0.000000
vn -1.000000 0.000000 0.000000
vn -1.000000 0.000000 0.000000
s off
g Building_03
usemtl initialShadingGroup
f 1/1/1 6/2/2 8/3/3 2/4/4
f 19/5/5 20/6/6 21/7/7 22/8/8 23/9/9 24/10/10
f 3/11/11 9/12/12 12/13/13 4/14/14
f 4/14/15 12/13/16 11/15/17 5/16/18 6/17/19 1/18/20
f 7/19/21 5/20/22 11/21/23 10/22/24
f 4/23/25 1/1/26 2/4/27 3/24/28
f 6/2/29 5/20/30 7/19/31 8/3/32
f 9/12/33 10/25/34 11/15/35 12/13/36
f 2/4/37 8/3/38 14/26/39 13/27/40
f 8/3/41 7/28/42 15/29/43 14/26/44
f 7/28/45 10/25/46 16/30/47 15/29/48
f 10/25/49 9/12/50 17/31/51 16/30/52
f 9/12/53 3/11/54 18/32/55 17/31/56
f 3/11/57 2/4/58 13/27/59 18/32/60
f 13/27/61 14/26/62 20/6/63 19/5/64
f 14/26/65 15/29/66 21/7/67 20/6/68
f 15/29/69 16/30/70 22/8/71 21/7/72
f 16/30/73 17/31/74 23/9/75 22/8/76
f 17/31/77 18/32/78 24/10/79 23/9/80
f 18/32/81 13/27/82 19/5/83 24/10/84
f 25/33/85 28/34/86 27/35/87 26/36/88
f 29/37/89 30/38/90 32/39/91 31/40/92
f 31/40/93 32/39/94 34/41/95 33/42/96
f 33/42/97 34/41/98 36/43/99 35/44/100
f 35/44/101 36/43/102 30/45/103 29/46/104
f 30/38/105 36/47/106 34/48/107 32/39/108
f 35/49/109 29/37/110 31/40/111 33/50/112
