# This file uses centimeters as units for non-parametric coordinates.

mtllib BG_ESCALIER.mtl
g default
v -190.552815 4.717492 256.629535
v 6.297691 4.717492 256.629535
v -190.552815 50.908291 256.629535
v 6.297691 50.908291 256.629535
v -190.552815 4.717492 -7.523364
v 6.297691 4.717492 -7.523364
v -190.552815 50.908291 256.630210
v 6.297691 50.908291 256.630210
v -190.552815 97.099091 256.630210
v 6.297691 97.099091 256.630210
v -190.552815 50.908291 56.988527
v 6.297691 50.908291 56.988527
v -190.552815 97.099091 256.630906
v 6.297691 97.099091 256.630906
v -190.552815 143.289890 256.630906
v 6.297691 143.289890 256.630906
v -190.552815 97.099091 121.500419
v 6.297691 97.099091 121.500419
v -190.552815 143.289890 256.631516
v 6.297691 143.289890 256.631516
v -190.552815 189.480689 256.631516
v 6.297691 189.480689 256.631516
v -190.552815 143.289890 186.012300
v 6.297691 143.289890 186.012300
v -190.552815 46.289673 -7.523364
v -190.552815 50.908291 -2.904746
v 6.297691 46.289673 -7.523364
v 6.297691 50.908291 -2.904746
v -190.552815 92.480472 56.988527
v -190.552815 97.099091 61.607146
v 6.297691 92.480472 56.988527
v 6.297691 97.099091 61.607146
v -190.552815 138.671271 121.500419
v -190.552815 143.289890 126.119037
v 6.297691 138.671271 121.500419
v 6.297691 143.289890 126.119037
v -190.552815 184.862071 186.012300
v -190.552815 189.480689 190.630918
v 6.297691 184.862071 186.012300
v 6.297691 189.480689 190.630918
vt 0.375000 0.000000
vt 0.625000 0.750000
vt 0.375000 1.000000
vt 0.625000 1.000000
vt 0.375000 0.000000
vt 0.625000 0.750000
vt 0.625000 1.000000
vt 0.375000 1.000000
vt 0.375000 0.000000
vt 0.625000 0.750000
vt 0.625000 1.000000
vt 0.375000 1.000000
vt 0.375000 0.000000
vt 0.625000 0.750000
vt 0.625000 1.000000
vt 0.375000 1.000000
vt 0.125000 0.000000
vt 0.375000 0.250000
vt 0.129371 0.250000
vt 0.125000 0.225002
vt 0.625000 0.000000
vt 0.875000 0.000000
vt 0.875000 0.225002
vt 0.870629 0.250000
vt 0.125000 0.000000
vt 0.375000 0.250000
vt 0.130784 0.250000
vt 0.125000 0.225002
vt 0.625000 0.000000
vt 0.875000 0.000000
vt 0.875000 0.225002
vt 0.869216 0.250000
vt 0.125000 0.000000
vt 0.375000 0.250000
vt 0.133545 0.250000
vt 0.125000 0.225002
vt 0.625000 0.000000
vt 0.875000 0.000000
vt 0.875000 0.225002
vt 0.866455 0.250000
vt 0.125000 0.000000
vt 0.375000 0.250000
vt 0.141350 0.250000
vt 0.125000 0.225002
vt 0.625000 0.000000
vt 0.875000 0.000000
vt 0.875000 0.225002
vt 0.858650 0.250000
vt 0.375000 0.524998
vt 0.375000 0.750000
vt 0.625000 0.250000
vt 0.625000 0.495629
vt 0.375000 0.524998
vt 0.375000 0.750000
vt 0.625000 0.250000
vt 0.625000 0.494216
vt 0.375000 0.524998
vt 0.375000 0.750000
vt 0.625000 0.250000
vt 0.625000 0.491455
vt 0.375000 0.524998
vt 0.375000 0.750000
vt 0.625000 0.250000
vt 0.625000 0.483650
vt 0.375000 0.495629
vt 0.625000 0.524998
vt 0.375000 0.494216
vt 0.625000 0.524998
vt 0.375000 0.491455
vt 0.625000 0.524998
vt 0.375000 0.483650
vt 0.625000 0.524998
vn 0.000000 0.000000 1.000000
vn 0.000000 0.000000 1.000000
vn 0.000000 0.000000 1.000000
vn 0.000000 0.000000 1.000000
vn 0.000000 1.000000 0.000000
vn 0.000000 1.000000 0.000000
vn 0.000000 1.000000 0.000000
vn 0.000000 1.000000 0.000000
vn 0.000000 0.000000 -1.000000
vn 0.000000 0.000000 -1.000000
vn 0.000000 0.000000 -1.000000
vn 0.000000 0.000000 -1.000000
vn 0.000000 -1.000000 0.000000
vn 0.000000 -1.000000 0.000000
vn 0.000000 -1.000000 0.000000
vn 0.000000 -1.000000 0.000000
vn 1.000000 -0.000000 0.000000
vn 1.000000 -0.000000 0.000000
vn 1.000000 -0.000000 0.000000
vn 1.000000 -0.000000 0.000000
vn 1.000000 -0.000000 0.000000
vn -1.000000 0.000000 0.000000
vn -1.000000 0.000000 0.000000
vn -1.000000 0.000000 0.000000
vn -1.000000 0.000000 0.000000
vn -1.000000 0.000000 0.000000
vn 0.000000 0.000000 1.000000
vn 0.000000 0.000000 1.000000
vn 0.000000 0.000000 1.000000
vn 0.000000 0.000000 1.000000
vn 0.000000 1.000000 0.000000
vn 0.000000 1.000000 0.000000
vn 0.000000 1.000000 0.000000
vn 0.000000 1.000000 0.000000
vn 0.000000 0.000000 -1.000000
vn 0.000000 0.000000 -1.000000
vn 0.000000 0.000000 -1.000000
vn 0.000000 0.000000 -1.000000
vn 0.000000 -1.000000 0.000000
vn 0.000000 -1.000000 0.000000
vn 0.000000 -1.000000 0.000000
vn 0.000000 -1.000000 0.000000
vn 1.000000 0.000000 0.000000
vn 1.000000 0.000000 0.000000
vn 1.000000 0.000000 0.000000
vn 1.000000 0.000000 0.000000
vn 1.000000 0.000000 0.000000
vn -1.000000 -0.000000 0.000000
vn -1.000000 -0.000000 0.000000
vn -1.000000 -0.000000 0.000000
vn -1.000000 -0.000000 0.000000
vn -1.000000 -0.000000 0.000000
vn 0.000000 0.000000 1.000000
vn 0.000000 0.000000 1.000000
vn 0.000000 0.000000 1.000000
vn 0.000000 0.000000 1.000000
vn 0.000000 1.000000 0.000000
vn 0.000000 1.000000 0.000000
vn 0.000000 1.000000 0.000000
vn 0.000000 1.000000 0.000000
vn 0.000000 0.000000 -1.000000
vn 0.000000 0.000000 -1.000000
vn 0.000000 0.000000 -1.000000
vn 0.000000 0.000000 -1.000000
vn 0.000000 -1.000000 0.000000
vn 0.000000 -1.000000 0.000000
vn 0.000000 -1.000000 0.000000
vn 0.000000 -1.000000 0.000000
vn 1.000000 0.000000 0.000000
vn 1.000000 0.000000 0.000000
vn 1.000000 0.000000 0.000000
vn 1.000000 0.000000 0.000000
vn 1.000000 0.000000 0.000000
vn -1.000000 -0.000000 0.000000
vn -1.000000 -0.000000 0.000000
vn -1.000000 -0.000000 0.000000
vn -1.000000 -0.000000 0.000000
vn -1.000000 -0.000000 0.000000
vn 0.000000 0.000000 1.000000
vn 0.000000 0.000000 1.000000
vn 0.000000 0.000000 1.000000
vn 0.000000 0.000000 1.000000
vn 0.000000 1.000000 0.000000
vn 0.000000 1.000000 0.000000
vn 0.000000 1.000000 0.000000
vn 0.000000 1.000000 0.000000
vn 0.000000 0.000000 -1.000000
vn 0.000000 0.000000 -1.000000
vn 0.000000 0.000000 -1.000000
vn 0.000000 0.000000 -1.000000
vn 0.000000 -1.000000 0.000000
vn 0.000000 -1.000000 0.000000
vn 0.000000 -1.000000 0.000000
vn 0.000000 -1.000000 0.000000
vn 1.000000 0.000000 0.000000
vn 1.000000 0.000000 0.000000
vn 1.000000 0.000000 0.000000
vn 1.000000 0.000000 0.000000
vn 1.000000 0.000000 0.000000
vn -1.000000 0.000000 0.000000
vn -1.000000 0.000000 0.000000
vn -1.000000 0.000000 0.000000
vn -1.000000 0.000000 0.000000
vn -1.000000 0.000000 0.000000
vn 0.000000 0.707107 -0.707107
vn 0.000000 0.707107 -0.707107
vn 0.000000 0.707107 -0.707107
vn 0.000000 0.707107 -0.707107
vn 0.000000 0.707107 -0.707107
vn 0.000000 0.707107 -0.707107
vn 0.000000 0.707107 -0.707107
vn 0.000000 0.707107 -0.707107
vn 0.000000 0.707107 -0.707107
vn 0.000000 0.707107 -0.707107
vn 0.000000 0.707107 -0.707107
vn 0.000000 0.707107 -0.707107
vn 0.000000 0.707107 -0.707107
vn 0.000000 0.707107 -0.707107
vn 0.000000 0.707107 -0.707107
vn 0.000000 0.707107 -0.707107
s off
g pCube11
usemtl initialShadingGroup
f 1/1/1 2/21/2 4/51/3 3/18/4
f 3/18/5 4/51/6 28/52/7 26/65/8
f 25/49/9 27/66/10 6/2/11 5/50/12
f 5/50/13 6/2/14 2/4/15 1/3/16
f 2/21/17 6/22/18 27/23/19 28/24/20 4/51/21
f 5/17/22 1/1/23 3/18/24 26/19/25 25/20/26
f 7/5/27 8/29/28 10/55/29 9/26/30
f 9/26/31 10/55/32 32/56/33 30/67/34
f 29/53/35 31/68/36 12/6/37 11/54/38
f 11/54/39 12/6/40 8/7/41 7/8/42
f 8/29/43 12/30/44 31/31/45 32/32/46 10/55/47
f 11/25/48 7/5/49 9/26/50 30/27/51 29/28/52
f 13/9/53 14/37/54 16/59/55 15/34/56
f 15/34/57 16/59/58 36/60/59 34/69/60
f 33/57/61 35/70/62 18/10/63 17/58/64
f 17/58/65 18/10/66 14/11/67 13/12/68
f 14/37/69 18/38/70 35/39/71 36/40/72 16/59/73
f 17/33/74 13/9/75 15/34/76 34/35/77 33/36/78
f 19/13/79 20/45/80 22/63/81 21/42/82
f 21/42/83 22/63/84 40/64/85 38/71/86
f 37/61/87 39/72/88 24/14/89 23/62/90
f 23/62/91 24/14/92 20/15/93 19/16/94
f 20/45/95 24/46/96 39/47/97 40/48/98 22/63/99
f 23/41/100 19/13/101 21/42/102 38/43/103 37/44/104
f 25/49/105 26/65/106 28/52/107 27/66/108
f 29/53/109 30/67/110 32/56/111 31/68/112
f 33/57/113 34/69/114 36/60/115 35/70/116
f 37/61/117 38/71/118 40/64/119 39/72/120
