# This file uses centimeters as units for non-parametric coordinates.

mtllib BG_JARRE.mtl
g default
v 34.509224 0.000000 -0.000006
v 17.254610 0.000000 -7.147116
v 0.000000 0.000000 -0.000006
v -7.147121 0.000000 17.254620
v -0.000011 0.000000 34.509216
v 17.254610 0.000000 41.656334
v 34.509232 0.000000 34.509216
v 41.656345 0.000000 17.254620
v 34.948956 105.874184 -0.439734
v 17.254612 105.874184 -7.768984
v -0.439732 105.874184 -0.439734
v -7.768974 105.874184 17.254597
v -0.439732 105.874184 34.948952
v 17.254610 105.874184 42.278183
v 34.948956 105.874184 34.948952
v 42.278198 105.874184 17.254602
v 17.254606 4.751099 17.254620
v 48.401909 80.215317 48.401901
v 17.254604 80.215317 61.303535
v -13.892687 80.215317 48.401897
v -26.794319 80.215317 17.254602
v -13.892687 80.215317 -13.892693
v 17.254608 80.215317 -26.794321
v 48.401909 80.215317 -13.892693
v 61.303543 80.215317 17.254602
v 54.758873 45.238594 54.758865
v 17.254608 45.238594 70.293633
v -20.249649 45.238594 54.758858
v -35.784424 45.238594 17.254602
v -20.249649 45.238594 -20.249647
v 17.254608 45.238594 -35.784416
v 54.758865 45.238594 -20.249647
v 70.293648 45.238594 17.254602
v 40.455353 7.880985 40.455360
v 17.254610 7.880985 50.065422
v -5.946136 7.880985 40.455345
v -15.556194 7.880985 17.254620
v -5.946136 7.880985 -5.946131
v 17.254610 7.880985 -15.556200
v 40.455353 7.880985 -5.946131
v 50.065422 7.880985 17.254620
v 34.778961 111.480759 -0.269753
v 17.254612 111.480759 -7.528574
v -0.269737 111.480759 -0.269753
v -7.528564 111.480759 17.254597
v -0.269737 111.480759 34.778957
v 17.254610 111.480759 42.037781
v 34.778961 111.480759 34.778954
v 42.037788 111.480759 17.254602
v 34.527428 119.743080 -0.018209
v 17.254612 119.743080 -7.172865
v -0.018208 119.743080 -0.018209
v -7.172848 119.743080 17.254597
v -0.018208 119.743080 34.527439
v 17.254610 119.743080 41.682064
v 34.527428 119.743080 34.527412
v 41.682068 119.743080 17.254602
v 27.665861 123.709496 6.843358
v 17.254610 123.709496 2.530878
v 6.843359 123.709496 6.843358
v 2.530875 123.709503 17.254597
v 6.843361 123.709503 27.665865
v 17.254606 123.709496 31.978344
v 27.665863 123.709496 27.665854
v 31.978346 123.709496 17.254602
v 27.347630 135.324615 7.161587
v 17.254610 135.324615 2.980929
v 17.254616 134.764343 17.254597
v 7.161597 135.324615 7.161592
v 2.980935 135.324631 17.254591
v 7.161607 135.324631 27.347630
v 17.254614 135.324615 31.528294
v 27.347630 135.324615 27.347612
v 31.528297 135.324615 17.254602
v 39.074589 114.144760 -4.565376
v 17.254604 114.144760 -13.603516
v 17.254618 117.609764 -13.424093
v 38.947720 117.609764 -4.438501
v -4.565374 114.144760 -4.565365
v -4.438503 117.609756 -4.438490
v -13.603510 114.144760 17.254597
v -13.424084 117.609764 17.254597
v -4.565374 114.144760 39.074593
v -4.438499 117.609756 38.947739
v 17.254612 114.144760 48.112724
v 17.254608 117.609756 47.933296
v 39.074593 114.144775 39.074585
v 38.947723 117.609756 38.947716
v 48.112728 114.144760 17.254602
v 47.933304 117.609764 17.254602
vt 0.610485 0.045765
vt 0.500000 0.000000
vt 0.389515 0.045765
vt 0.343750 0.156250
vt 0.389515 0.266735
vt 0.500000 0.312500
vt 0.610485 0.266735
vt 0.656250 0.156250
vt 0.375000 0.312500
vt 0.406250 0.312500
vt 0.437500 0.312500
vt 0.468750 0.312500
vt 0.500000 0.312500
vt 0.531250 0.312500
vt 0.562500 0.312500
vt 0.593750 0.312500
vt 0.625000 0.312500
vt 0.375000 0.688440
vt 0.406250 0.688440
vt 0.437500 0.688440
vt 0.468750 0.688440
vt 0.500000 0.688440
vt 0.531250 0.688440
vt 0.562500 0.688440
vt 0.593750 0.688440
vt 0.625000 0.688440
vt 0.610485 0.733265
vt 0.500000 0.687500
vt 0.389515 0.733265
vt 0.343750 0.843750
vt 0.389515 0.954235
vt 0.500000 1.000000
vt 0.610485 0.954235
vt 0.656250 0.843750
vt 0.500000 0.150000
vt 0.500000 0.837500
vt 0.562500 0.594455
vt 0.531250 0.594455
vt 0.500000 0.594455
vt 0.468750 0.594455
vt 0.437500 0.594455
vt 0.406250 0.594455
vt 0.625000 0.594455
vt 0.375000 0.594455
vt 0.593750 0.594455
vt 0.562500 0.500470
vt 0.531250 0.500470
vt 0.500000 0.500470
vt 0.468750 0.500470
vt 0.437500 0.500470
vt 0.406250 0.500470
vt 0.625000 0.500470
vt 0.375000 0.500470
vt 0.593750 0.500470
vt 0.562500 0.406485
vt 0.531250 0.406485
vt 0.500000 0.406485
vt 0.468750 0.406485
vt 0.437500 0.406485
vt 0.406250 0.406485
vt 0.625000 0.406485
vt 0.375000 0.406485
vt 0.593750 0.406485
vt 0.610485 0.954235
vt 0.500000 1.000000
vt 0.389515 0.954235
vt 0.343750 0.843750
vt 0.389515 0.733265
vt 0.500000 0.687500
vt 0.610485 0.733265
vt 0.656250 0.843750
vt 0.610485 0.954235
vt 0.500000 1.000000
vt 0.389515 0.954235
vt 0.343750 0.843750
vt 0.389515 0.733265
vt 0.500000 0.687500
vt 0.610485 0.733265
vt 0.656250 0.843750
vt 0.610485 0.954235
vt 0.500000 1.000000
vt 0.389515 0.954235
vt 0.343750 0.843750
vt 0.389515 0.733265
vt 0.500000 0.687500
vt 0.610485 0.733265
vt 0.656250 0.843750
vt 0.610485 0.954235
vt 0.500000 1.000000
vt 0.389515 0.954235
vt 0.343750 0.843750
vt 0.389515 0.733265
vt 0.500000 0.687500
vt 0.610485 0.733265
vt 0.656250 0.843750
vt 0.610485 0.954235
vt 0.500000 1.000000
vt 0.500000 1.000000
vt 0.610485 0.954235
vt 0.389515 0.954235
vt 0.389515 0.954235
vt 0.343750 0.843750
vt 0.343750 0.843750
vt 0.389515 0.733265
vt 0.389515 0.733265
vt 0.500000 0.687500
vt 0.500000 0.687500
vt 0.610485 0.733265
vt 0.610485 0.733265
vt 0.656250 0.843750
vt 0.656250 0.843750
vn 0.272528 -0.702028 -0.657940
vn 0.272528 -0.702028 -0.657940
vn 0.335923 -0.479008 -0.810991
vn 0.335923 -0.479008 -0.810991
vn -0.272528 -0.702028 -0.657940
vn -0.272528 -0.702028 -0.657940
vn -0.335923 -0.479008 -0.810991
vn -0.335923 -0.479009 -0.810991
vn -0.657940 -0.702028 -0.272528
vn -0.657940 -0.702028 -0.272528
vn -0.810991 -0.479009 -0.335923
vn -0.810991 -0.479009 -0.335923
vn -0.657940 -0.702028 0.272528
vn -0.657940 -0.702028 0.272528
vn -0.810991 -0.479008 0.335924
vn -0.810991 -0.479009 0.335924
vn -0.272528 -0.702028 0.657940
vn -0.272528 -0.702028 0.657940
vn -0.335924 -0.479008 0.810991
vn -0.335924 -0.479008 0.810991
vn 0.272528 -0.702029 0.657939
vn 0.272528 -0.702029 0.657939
vn 0.335923 -0.479008 0.810991
vn 0.335923 -0.479008 0.810991
vn 0.657940 -0.702028 0.272528
vn 0.657940 -0.702028 0.272528
vn 0.810991 -0.479009 0.335924
vn 0.810991 -0.479009 0.335924
vn 0.657940 -0.702028 -0.272528
vn 0.657940 -0.702028 -0.272528
vn 0.810991 -0.479009 -0.335924
vn 0.810991 -0.479009 -0.335924
vn -0.000000 -0.981568 0.191115
vn -0.135138 -0.981568 0.135138
vn 0.000000 -1.000000 -0.000000
vn 0.135138 -0.981568 0.135138
vn 0.191115 -0.981568 0.000000
vn 0.135139 -0.981568 -0.135139
vn -0.000000 -0.981568 -0.191115
vn -0.135139 -0.981568 -0.135139
vn -0.191114 -0.981568 0.000000
vn -0.027734 0.999231 0.027734
vn 0.000000 0.999231 0.039223
vn 0.000000 1.000000 0.000000
vn 0.027735 0.999231 0.027733
vn 0.039223 0.999231 -0.000001
vn 0.027735 0.999231 -0.027733
vn 0.000001 0.999231 -0.039221
vn -0.027734 0.999231 -0.027734
vn -0.039222 0.999231 -0.000000
vn 0.358922 0.346880 0.866515
vn 0.358922 0.346880 0.866515
vn 0.315710 0.565145 0.762193
vn 0.315711 0.565145 0.762193
vn -0.358923 0.346880 0.866515
vn -0.358923 0.346880 0.866515
vn -0.315711 0.565145 0.762193
vn -0.315711 0.565145 0.762193
vn -0.866515 0.346880 0.358922
vn -0.866515 0.346880 0.358922
vn -0.762193 0.565145 0.315711
vn -0.762193 0.565145 0.315711
vn -0.866515 0.346880 -0.358923
vn -0.866515 0.346880 -0.358922
vn -0.762193 0.565145 -0.315711
vn -0.762193 0.565145 -0.315711
vn -0.358922 0.346880 -0.866515
vn -0.358922 0.346880 -0.866515
vn -0.315711 0.565145 -0.762193
vn -0.315711 0.565145 -0.762193
vn 0.358922 0.346880 -0.866515
vn 0.358922 0.346880 -0.866515
vn 0.315711 0.565145 -0.762193
vn 0.315711 0.565145 -0.762193
vn 0.866515 0.346880 -0.358923
vn 0.866515 0.346880 -0.358923
vn 0.762193 0.565145 -0.315711
vn 0.762193 0.565145 -0.315711
vn 0.866515 0.346880 0.358922
vn 0.866515 0.346880 0.358922
vn 0.762193 0.565145 0.315711
vn 0.762193 0.565145 0.315711
vn 0.380407 -0.108908 0.918384
vn 0.380407 -0.108908 0.918384
vn -0.380408 -0.108908 0.918384
vn -0.380408 -0.108908 0.918384
vn -0.918384 -0.108908 0.380407
vn -0.918384 -0.108908 0.380407
vn -0.918384 -0.108908 -0.380407
vn -0.918384 -0.108908 -0.380407
vn -0.380407 -0.108908 -0.918384
vn -0.380407 -0.108908 -0.918384
vn 0.380407 -0.108908 -0.918384
vn 0.380407 -0.108908 -0.918384
vn 0.918384 -0.108908 -0.380407
vn 0.918384 -0.108908 -0.380407
vn 0.918384 -0.108908 0.380407
vn 0.918384 -0.108908 0.380407
vn 0.382384 0.039584 -0.923155
vn 0.382384 0.039584 -0.923155
vn 0.382384 0.039584 -0.923155
vn 0.382384 0.039584 -0.923155
vn -0.382384 0.039584 -0.923155
vn -0.382384 0.039584 -0.923155
vn -0.382384 0.039584 -0.923155
vn -0.382384 0.039584 -0.923155
vn -0.923155 0.039584 -0.382384
vn -0.923155 0.039584 -0.382384
vn -0.923155 0.039584 -0.382384
vn -0.923155 0.039584 -0.382384
vn -0.923156 0.039585 0.382383
vn -0.923156 0.039585 0.382383
vn -0.923155 0.039585 0.382383
vn -0.923155 0.039585 0.382383
vn -0.382384 0.039584 0.923155
vn -0.382384 0.039584 0.923155
vn -0.382384 0.039584 0.923155
vn -0.382384 0.039584 0.923155
vn 0.382383 0.039585 0.923155
vn 0.382383 0.039585 0.923155
vn 0.382383 0.039585 0.923155
vn 0.382383 0.039585 0.923155
vn 0.923156 0.039585 0.382383
vn 0.923156 0.039585 0.382383
vn 0.923156 0.039585 0.382383
vn 0.923155 0.039585 0.382383
vn 0.923155 0.039585 -0.382384
vn 0.923155 0.039585 -0.382384
vn 0.923155 0.039585 -0.382384
vn 0.923155 0.039585 -0.382384
vn 0.382248 0.047785 -0.922824
vn 0.382248 0.047785 -0.922824
vn 0.382248 0.047785 -0.922824
vn 0.382248 0.047785 -0.922824
vn -0.382247 0.047786 -0.922824
vn -0.382247 0.047786 -0.922824
vn -0.382247 0.047786 -0.922824
vn -0.382247 0.047786 -0.922824
vn -0.922824 0.047786 -0.382246
vn -0.922824 0.047786 -0.382246
vn -0.922824 0.047786 -0.382247
vn -0.922824 0.047786 -0.382246
vn -0.922824 0.047785 0.382246
vn -0.922824 0.047785 0.382246
vn -0.922824 0.047785 0.382246
vn -0.922824 0.047785 0.382246
vn -0.382246 0.047784 0.922824
vn -0.382246 0.047784 0.922824
vn -0.382246 0.047784 0.922824
vn -0.382246 0.047784 0.922824
vn 0.382247 0.047786 0.922824
vn 0.382247 0.047786 0.922824
vn 0.382247 0.047786 0.922824
vn 0.382247 0.047786 0.922824
vn 0.922825 0.047785 0.382245
vn 0.922825 0.047785 0.382245
vn 0.922825 0.047785 0.382245
vn 0.922825 0.047785 0.382245
vn 0.922824 0.047785 -0.382246
vn 0.922824 0.047785 -0.382246
vn 0.922824 0.047785 -0.382246
vn 0.922824 0.047785 -0.382246
vn 0.244636 0.938247 -0.244636
vn -0.000000 0.938247 -0.345967
vn -0.000000 0.925657 -0.378364
vn 0.267544 0.925657 -0.267544
vn -0.244636 0.938246 -0.244636
vn -0.267544 0.925657 -0.267544
vn -0.345968 0.938247 0.000000
vn -0.378364 0.925657 -0.000000
vn -0.244636 0.938246 0.244636
vn -0.267544 0.925657 0.267544
vn 0.000000 0.938246 0.345968
vn 0.000000 0.925657 0.378365
vn 0.244636 0.938246 0.244636
vn 0.267544 0.925657 0.267544
vn 0.345967 0.938247 0.000000
vn 0.378364 0.925657 -0.000000
vn 0.382438 0.035774 -0.923288
vn 0.382438 0.035774 -0.923288
vn 0.382438 0.035774 -0.923288
vn 0.382438 0.035774 -0.923288
vn -0.382438 0.035775 -0.923288
vn -0.382438 0.035775 -0.923288
vn -0.382438 0.035775 -0.923288
vn -0.382438 0.035775 -0.923288
vn -0.923288 0.035775 -0.382439
vn -0.923288 0.035775 -0.382439
vn -0.923288 0.035775 -0.382439
vn -0.923288 0.035775 -0.382439
vn -0.923288 0.035776 0.382438
vn -0.923288 0.035776 0.382438
vn -0.923288 0.035776 0.382438
vn -0.923288 0.035776 0.382438
vn -0.382439 0.035775 0.923288
vn -0.382439 0.035775 0.923288
vn -0.382439 0.035775 0.923288
vn -0.382439 0.035775 0.923288
vn 0.382439 0.035775 0.923288
vn 0.382439 0.035775 0.923288
vn 0.382439 0.035775 0.923288
vn 0.382439 0.035775 0.923288
vn 0.923288 0.035775 0.382439
vn 0.923288 0.035775 0.382439
vn 0.923288 0.035775 0.382439
vn 0.923288 0.035775 0.382439
vn 0.923288 0.035774 -0.382439
vn 0.923288 0.035774 -0.382439
vn 0.923288 0.035774 -0.382439
vn 0.923288 0.035774 -0.382439
vn 0.283978 -0.915813 -0.283979
vn -0.000000 -0.915813 -0.401606
vn -0.000000 -0.915813 -0.401606
vn 0.283978 -0.915813 -0.283979
vn 0.228377 0.946408 -0.228377
vn -0.000000 0.946408 -0.322974
vn -0.283978 -0.915813 -0.283978
vn -0.283978 -0.915813 -0.283977
vn -0.228378 0.946407 -0.228378
vn -0.401605 -0.915813 0.000000
vn -0.401605 -0.915813 0.000000
vn -0.322974 0.946408 0.000000
vn -0.283978 -0.915813 0.283978
vn -0.283978 -0.915813 0.283978
vn -0.228377 0.946408 0.228378
vn 0.000000 -0.915813 0.401606
vn 0.000000 -0.915813 0.401606
vn 0.000000 0.946408 0.322975
vn 0.283978 -0.915812 0.283979
vn 0.283978 -0.915812 0.283979
vn 0.228377 0.946408 0.228378
vn 0.401606 -0.915813 0.000000
vn 0.401606 -0.915813 0.000000
vn 0.322974 0.946408 0.000000
s 1
g Jarre
usemtl initialShadingGroup
f 1/9/1 2/10/2 39/60/3 40/62/4
s 2
f 2/10/5 3/11/6 38/59/7 39/60/8
s 3
f 3/11/9 4/12/10 37/58/11 38/59/12
s 4
f 4/12/13 5/13/14 36/57/15 37/58/16
s 5
f 5/13/17 6/14/18 35/56/19 36/57/20
s 6
f 6/14/21 7/15/22 34/55/23 35/56/24
s 7
f 7/15/25 8/16/26 41/63/27 34/55/28
s 8
f 8/16/29 1/17/30 40/61/31 41/63/32
s 9
f 2/2/33 1/1/34 17/35/35
f 3/3/36 2/2/33 17/35/35
f 4/4/37 3/3/36 17/35/35
f 5/5/38 4/4/37 17/35/35
f 6/6/39 5/5/38 17/35/35
f 7/7/40 6/6/39 17/35/35
f 8/8/41 7/7/40 17/35/35
f 1/1/34 8/8/41 17/35/35
s 10
f 66/88/42 67/89/43 68/36/44
f 67/89/43 69/90/45 68/36/44
f 69/90/45 70/91/46 68/36/44
f 70/91/46 71/92/47 68/36/44
f 71/92/47 72/93/48 68/36/44
f 72/93/48 73/94/49 68/36/44
f 73/94/49 74/95/50 68/36/44
f 74/95/50 66/88/42 68/36/44
s 6
f 19/38/51 18/37/52 15/24/53 14/23/54
s 5
f 20/39/55 19/38/56 14/23/57 13/22/58
s 4
f 21/40/59 20/39/60 13/22/61 12/21/62
s 3
f 22/41/63 21/40/64 12/21/65 11/20/66
s 2
f 23/42/67 22/41/68 11/20/69 10/19/70
s 1
f 24/44/71 23/42/72 10/19/73 9/18/74
s 8
f 25/45/75 24/43/76 9/26/77 16/25/78
s 7
f 18/37/79 25/45/80 16/25/81 15/24/82
s 6
f 27/47/83 26/46/84 18/37/52 19/38/51
s 5
f 28/48/85 27/47/86 19/38/56 20/39/55
s 4
f 29/49/87 28/48/88 20/39/60 21/40/59
s 3
f 30/50/89 29/49/90 21/40/64 22/41/63
s 2
f 31/51/91 30/50/92 22/41/68 23/42/67
s 1
f 32/53/93 31/51/94 23/42/72 24/44/71
s 8
f 33/54/95 32/52/96 24/43/76 25/45/75
s 7
f 26/46/97 33/54/98 25/45/80 18/37/79
s 6
f 35/56/24 34/55/23 26/46/84 27/47/83
s 5
f 36/57/20 35/56/19 27/47/86 28/48/85
s 4
f 37/58/16 36/57/15 28/48/88 29/49/87
s 3
f 38/59/12 37/58/11 29/49/90 30/50/89
s 2
f 39/60/8 38/59/7 30/50/92 31/51/91
s 1
f 40/62/4 39/60/3 31/51/94 32/53/93
s 8
f 41/63/32 40/61/31 32/52/96 33/54/95
s 7
f 34/55/28 41/63/27 33/54/98 26/46/97
s off
f 9/33/99 10/32/100 43/65/101 42/64/102
f 10/32/103 11/31/104 44/66/105 43/65/106
f 11/31/107 12/30/108 45/67/109 44/66/110
f 12/30/111 13/29/112 46/68/113 45/67/114
f 13/29/115 14/28/116 47/69/117 46/68/118
f 14/28/119 15/27/120 48/70/121 47/69/122
f 15/27/123 16/34/124 49/71/125 48/70/126
f 16/34/127 9/33/128 42/64/129 49/71/130
f 75/96/131 76/97/132 77/98/133 78/99/134
f 76/97/135 79/100/136 80/101/137 77/98/138
f 79/100/139 81/102/140 82/103/141 80/101/142
f 81/102/143 83/104/144 84/105/145 82/103/146
f 83/104/147 85/106/148 86/107/149 84/105/150
f 85/106/151 87/108/152 88/109/153 86/107/154
f 87/108/155 89/110/156 90/111/157 88/109/158
f 89/110/159 75/96/160 78/99/161 90/111/162
s 19
f 50/72/163 51/73/164 59/81/165 58/80/166
f 51/73/164 52/74/167 60/82/168 59/81/165
f 52/74/167 53/75/169 61/83/170 60/82/168
f 53/75/169 54/76/171 62/84/172 61/83/170
f 54/76/171 55/77/173 63/85/174 62/84/172
f 55/77/173 56/78/175 64/86/176 63/85/174
f 56/78/175 57/79/177 65/87/178 64/86/176
f 57/79/177 50/72/163 58/80/166 65/87/178
s off
f 58/80/179 59/81/180 67/89/181 66/88/182
f 59/81/183 60/82/184 69/90/185 67/89/186
f 60/82/187 61/83/188 70/91/189 69/90/190
f 61/83/191 62/84/192 71/92/193 70/91/194
f 62/84/195 63/85/196 72/93/197 71/92/198
f 63/85/199 64/86/200 73/94/201 72/93/202
f 64/86/203 65/87/204 74/95/205 73/94/206
f 65/87/207 58/80/208 66/88/209 74/95/210
s 20
f 42/64/211 43/65/212 76/97/213 75/96/214
s 19
f 51/73/164 50/72/163 78/99/215 77/98/216
s 20
f 43/65/212 44/66/217 79/100/218 76/97/213
s 19
f 52/74/167 51/73/164 77/98/216 80/101/219
s 20
f 44/66/217 45/67/220 81/102/221 79/100/218
s 19
f 53/75/169 52/74/167 80/101/219 82/103/222
s 20
f 45/67/220 46/68/223 83/104/224 81/102/221
s 19
f 54/76/171 53/75/169 82/103/222 84/105/225
s 20
f 46/68/223 47/69/226 85/106/227 83/104/224
s 19
f 55/77/173 54/76/171 84/105/225 86/107/228
s 20
f 47/69/226 48/70/229 87/108/230 85/106/227
s 19
f 56/78/175 55/77/173 86/107/228 88/109/231
s 20
f 48/70/229 49/71/232 89/110/233 87/108/230
s 19
f 57/79/177 56/78/175 88/109/231 90/111/234
s 20
f 49/71/232 42/64/211 75/96/214 89/110/233
s 19
f 50/72/163 57/79/177 90/111/234 78/99/215
