# This file uses centimeters as units for non-parametric coordinates.

mtllib BG_PIZZA_03.mtl
g default
v -16.978806 6.266356 0.000000
v 0.000000 6.266356 0.000000
v 0.000000 6.266356 19.605440
v -16.978806 6.266356 9.802731
v -55.452549 6.266356 55.452560
v -54.876362 6.266356 31.682899
v -36.584240 6.266356 43.760353
v -39.210869 6.266356 67.915237
v -16.978806 6.266356 29.408157
v -18.292118 6.266356 51.288345
v -33.957611 6.266356 19.605453
v -39.210869 -0.000002 67.915237
v -55.452549 0.000000 55.452560
v 0.000000 6.266356 39.210880
v -20.297039 6.266356 75.749611
v 0.000000 6.266356 58.816330
v -20.297039 -0.000002 75.749611
v 0.000000 6.266356 78.421745
v 0.000000 -0.000000 78.421745
v -33.957611 6.266356 0.000008
v -67.915230 -0.000002 39.210892
v -67.915230 6.266356 39.210892
v -56.189690 6.266356 9.802731
v -33.957626 6.266356 0.000000
v -33.957611 6.266356 0.000000
v -75.749580 6.266356 20.297062
v -75.749580 -0.000002 20.297062
v -78.421753 6.266356 0.000008
v -54.876373 6.266356 0.000000
v -78.421753 6.266356 0.000000
v -78.421753 0.000000 0.000008
v -78.421753 -0.000000 0.000000
vt 0.392178 0.500000
vt 0.500000 0.500000
vt 0.500000 0.375501
vt 0.392178 0.437751
vt 0.147855 0.147858
vt 0.151515 0.298801
vt 0.267676 0.222101
vt 0.250996 0.068714
vt 0.392178 0.313252
vt 0.383838 0.174302
vt 0.284357 0.375501
vt 0.016445 0.523715
vt 0.019220 0.523715
vt 0.019220 0.519363
vt 0.016445 0.519363
vt 0.500000 0.251003
vt 0.371106 0.018968
vt 0.500000 0.126491
vt 0.010267 0.502936
vt 0.013041 0.502936
vt 0.013041 0.496331
vt 0.010267 0.496331
vt 0.500000 0.001992
vt 0.010267 0.510023
vt 0.013041 0.510023
vt 0.284357 0.500000
vt 0.019220 0.513692
vt 0.016445 0.513692
vt 0.143174 0.437751
vt 0.284357 0.500000
vt 0.284357 0.500000
vt 0.018961 0.371110
vt 0.068714 0.251003
vt 0.019220 0.507087
vt 0.016445 0.507087
vt 0.001992 0.500000
vt 0.151515 0.500000
vt 0.001992 0.500000
vt 0.019220 0.500000
vt 0.016445 0.500000
vt 0.019220 0.500000
vt 0.016445 0.500000
vn 0.000000 1.000000 -0.000000
vn 0.000000 1.000000 0.000000
vn 0.000000 1.000000 0.000000
vn 0.000000 1.000000 -0.000000
vn 0.000000 1.000000 0.000000
vn 0.000000 1.000000 0.000000
vn 0.000000 1.000000 0.000000
vn 0.000000 1.000000 -0.000000
vn 0.000000 1.000000 0.000000
vn 0.000000 1.000000 -0.000000
vn 0.000000 1.000000 0.000000
vn 0.000000 1.000000 0.000000
vn -0.500000 0.000000 0.866025
vn -0.707107 0.000000 0.707107
vn -0.707107 0.000000 0.707107
vn -0.500000 0.000000 0.866025
vn 0.000000 1.000000 0.000000
vn 0.000000 1.000000 0.000000
vn 0.000000 1.000000 0.000000
vn 0.000000 1.000000 0.000000
vn 0.000000 1.000000 0.000000
vn 0.000000 1.000000 0.000000
vn 0.000000 1.000000 0.000000
vn 0.000000 1.000000 0.000000
vn -0.258819 0.000000 0.965926
vn -0.500000 0.000000 0.866025
vn -0.500000 0.000000 0.866025
vn -0.258819 0.000000 0.965926
vn 0.000000 1.000000 0.000000
vn 0.000000 1.000000 0.000000
vn -0.000000 0.000000 1.000000
vn -0.258819 0.000000 0.965926
vn -0.258819 0.000000 0.965926
vn -0.000000 0.000000 1.000000
vn 0.000000 1.000000 0.000000
vn 0.000000 1.000000 -0.000000
vn 0.000000 1.000000 0.000000
vn 0.000000 1.000000 0.000000
vn -0.707107 0.000000 0.707107
vn -0.866025 0.000000 0.500000
vn -0.866025 0.000000 0.500000
vn -0.707107 0.000000 0.707107
vn 0.000000 1.000000 0.000000
vn 0.000000 1.000000 -0.000000
vn 0.000000 1.000000 0.000000
vn 0.000000 1.000000 -0.000000
vn 0.000000 1.000000 0.000000
vn 0.000000 1.000000 0.000000
vn 0.000000 1.000000 0.000000
vn 0.000000 1.000000 -0.000000
vn 0.000000 1.000000 0.000000
vn 0.000000 1.000000 0.000000
vn 0.000000 1.000000 -0.000000
vn -0.866025 0.000000 0.500000
vn -0.965926 0.000000 0.258819
vn -0.965926 0.000000 0.258819
vn -0.866025 0.000000 0.500000
vn 0.000000 1.000000 0.000000
vn 0.000000 1.000000 -0.000000
vn 0.000000 1.000000 -0.000000
vn 0.000000 1.000000 -0.000000
vn 0.000000 1.000000 0.000000
vn 0.000000 1.000000 0.000000
vn 0.000000 1.000000 -0.000000
vn 0.000000 1.000000 -0.000000
vn 0.000000 1.000000 -0.000000
vn -0.965926 0.000000 0.258819
vn -1.000000 0.000000 0.000001
vn -1.000000 0.000000 0.000001
vn -0.965926 0.000000 0.258819
vn -1.000000 0.000000 0.000000
vn -1.000000 0.000000 0.000001
vn -1.000000 0.000000 0.000001
vn -1.000000 0.000000 0.000000
s 1
g Pizza03
usemtl rsMaterial1SG
f 1/1/1 4/4/2 3/3/3 2/2/4
s off
f 5/5/5 8/8/6 7/7/7 6/6/8
f 9/9/9 11/11/10 7/7/11 10/10/12
f 8/12/13 5/15/14 13/14/15 12/13/16
s 1
f 3/3/3 4/4/2 9/9/17 14/16/18
s off
f 7/7/19 8/8/20 15/17/21 10/10/22
s 1
f 14/16/18 9/9/17 10/10/23 16/18/24
s off
f 15/19/25 8/22/26 12/21/27 17/20/28
s 1
f 16/18/24 10/10/23 15/17/29 18/23/30
s off
f 18/24/31 15/19/32 17/20/33 19/25/34
f 20/26/35 11/11/36 9/9/37 4/4/38
f 5/15/39 22/28/40 21/27/41 13/14/42
f 7/7/43 11/11/44 23/29/45 6/6/46
s 1
f 24/30/47 20/26/48 25/31/49
f 25/31/49 20/26/48 4/4/2 1/1/1
s off
f 26/32/50 22/33/51 5/5/52 6/6/53
f 22/28/54 26/35/55 27/34/56 21/27/57
f 23/29/58 28/36/59 26/32/60 6/6/61
s 1
f 29/37/62 23/29/63 11/11/64 20/26/48 24/30/47
f 30/38/65 28/36/66 23/29/63 29/37/62
s off
f 26/35/67 28/40/68 31/39/69 27/34/70
f 32/41/71 31/39/72 28/40/73 30/42/74
