# This file uses centimeters as units for non-parametric coordinates.

mtllib BG_TOIT_02.mtl
g default
v -345.226501 0.000061 -1.000000
v -294.669373 0.000061 121.056030
v -172.613281 0.000061 171.613281
v -50.557190 0.000061 121.056030
v 0.000000 0.000061 -1.000000
v -332.087097 66.056213 -1.000000
v -285.378296 66.056213 111.765015
v -172.613281 66.056213 158.473877
v -59.848145 66.056213 111.765137
v -13.139282 66.056213 -1.000000
v -294.669373 122.056030 -1.000000
v -258.919861 122.056030 85.306641
v -172.613281 122.056030 121.056030
v -86.306580 122.056030 85.306641
v -50.557190 122.056030 -1.000000
v -238.669495 159.473999 -1.000000
v -219.322083 159.473999 45.708862
v -172.613281 159.473999 65.056274
v -125.904358 159.473999 45.708862
v -106.557129 159.473999 -1.000000
v -172.613281 172.613281 -1.000000
vt 0.375000 0.500000
vt 0.500000 0.500000
vt 0.500000 0.625000
vt 0.375000 0.625000
vt 0.625000 0.500000
vt 0.625000 0.625000
vt 0.750000 0.500000
vt 0.750000 0.625000
vt 0.875000 0.500000
vt 0.875000 0.625000
vt 0.500000 0.750000
vt 0.375000 0.750000
vt 0.625000 0.750000
vt 0.750000 0.750000
vt 0.875000 0.750000
vt 0.500000 0.875000
vt 0.375000 0.875000
vt 0.625000 0.875000
vt 0.750000 0.875000
vt 0.875000 0.875000
vt 0.437500 1.000000
vt 0.562500 1.000000
vt 0.687500 1.000000
vt 0.812500 1.000000
vn -0.908663 0.180745 0.376380
vn -0.908663 0.180745 0.376380
vn -0.908663 0.180745 0.376380
vn -0.908663 0.180745 0.376380
vn -0.376381 0.180745 0.908663
vn -0.376381 0.180745 0.908663
vn -0.376381 0.180745 0.908663
vn -0.376381 0.180745 0.908663
vn 0.376380 0.180745 0.908664
vn 0.376380 0.180745 0.908664
vn 0.376380 0.180745 0.908664
vn 0.376380 0.180745 0.908664
vn 0.908663 0.180745 0.376380
vn 0.908663 0.180745 0.376380
vn 0.908663 0.180745 0.376380
vn 0.908663 0.180745 0.376380
vn -0.786151 0.525288 0.325635
vn -0.786151 0.525288 0.325635
vn -0.786151 0.525288 0.325635
vn -0.786151 0.525288 0.325635
vn -0.325635 0.525289 0.786151
vn -0.325635 0.525289 0.786151
vn -0.325635 0.525289 0.786151
vn -0.325635 0.525289 0.786151
vn 0.325634 0.525290 0.786151
vn 0.325634 0.525290 0.786151
vn 0.325634 0.525290 0.786151
vn 0.325634 0.525290 0.786151
vn 0.786151 0.525289 0.325634
vn 0.786151 0.525289 0.325634
vn 0.786151 0.525289 0.325635
vn 0.786151 0.525289 0.325635
vn -0.541419 0.810291 0.224263
vn -0.541419 0.810291 0.224263
vn -0.541419 0.810291 0.224263
vn -0.541419 0.810291 0.224263
vn -0.224263 0.810290 0.541420
vn -0.224263 0.810290 0.541420
vn -0.224263 0.810290 0.541420
vn -0.224263 0.810290 0.541420
vn 0.224263 0.810290 0.541420
vn 0.224263 0.810290 0.541420
vn 0.224263 0.810290 0.541420
vn 0.224263 0.810290 0.541420
vn 0.541420 0.810291 0.224263
vn 0.541420 0.810291 0.224263
vn 0.541420 0.810291 0.224263
vn 0.541420 0.810291 0.224263
vn -0.194456 0.977599 0.080546
vn -0.194456 0.977599 0.080546
vn -0.194456 0.977599 0.080546
vn -0.080546 0.977599 0.194457
vn -0.080546 0.977599 0.194457
vn -0.080546 0.977599 0.194457
vn 0.080546 0.977598 0.194457
vn 0.080546 0.977598 0.194457
vn 0.080546 0.977598 0.194457
vn 0.194456 0.977599 0.080545
vn 0.194456 0.977599 0.080545
vn 0.194456 0.977599 0.080545
vn 0.000000 0.000000 -1.000000
vn 0.000000 0.000000 -1.000000
vn 0.000000 0.000000 -1.000000
vn 0.000000 0.000000 -1.000000
vn 0.000000 0.000000 -1.000000
vn 0.000000 0.000000 -1.000000
vn 0.000000 0.000000 -1.000000
vn 0.000000 0.000000 -1.000000
vn 0.000000 0.000000 -1.000000
vn 0.000000 0.000000 -1.000000
vn 0.000000 0.000000 -1.000000
vn 0.000000 0.000000 -1.000000
vn 0.000000 0.000000 -1.000000
vn 0.000000 0.000000 -1.000000
vn 0.000000 0.000000 -1.000000
vn 0.000000 -1.000000 0.000000
vn 0.000000 -1.000000 0.000000
vn 0.000000 -1.000000 0.000000
vn 0.000000 -1.000000 0.000000
vn 0.000000 -1.000000 0.000000
vn 0.000000 -1.000000 0.000000
vn 0.000000 -1.000000 0.000000
s off
g Toit
usemtl initialShadingGroup
f 1/1/1 2/2/2 7/3/3 6/4/4
f 2/2/5 3/5/6 8/6/7 7/3/8
f 3/5/9 4/7/10 9/8/11 8/6/12
f 4/7/13 5/9/14 10/10/15 9/8/16
f 6/4/17 7/3/18 12/11/19 11/12/20
f 7/3/21 8/6/22 13/13/23 12/11/24
f 8/6/25 9/8/26 14/14/27 13/13/28
f 9/8/29 10/10/30 15/15/31 14/14/32
f 11/12/33 12/11/34 17/16/35 16/17/36
f 12/11/37 13/13/38 18/18/39 17/16/40
f 13/13/41 14/14/42 19/19/43 18/18/44
f 14/14/45 15/15/46 20/20/47 19/19/48
f 16/17/49 17/16/50 21/21/51
f 17/16/52 18/18/53 21/22/54
f 18/18/55 19/19/56 21/23/57
f 19/19/58 20/20/59 21/24/60
f 1/1/61 6/4/62 10/10/63 5/9/64
f 6/4/65 11/12/66 15/15/67 10/10/68
f 11/12/69 16/17/70 20/20/71 15/15/72
f 21/24/73 20/20/74 16/17/75
f 2/2/76 1/1/77 5/9/78 4/7/79
f 3/5/80 2/2/81 4/7/82
