# This file uses centimeters as units for non-parametric coordinates.

mtllib BG_TOIT_02.mtl
g default
v 717.572450 934.824629 1291.787845
v 768.129582 934.824629 1413.843845
v 890.185665 934.824629 1464.401142
v 1012.241788 934.824629 1413.843927
v 1062.799003 934.824629 1291.787845
v 730.711880 1000.880810 1291.787845
v 777.420682 1000.880810 1404.552869
v 890.185665 1000.880810 1451.261753
v 1002.950812 1000.880810 1404.552951
v 1049.659614 1000.880810 1291.787845
v 768.129582 1056.880629 1291.787845
v 803.879098 1056.880629 1378.094493
v 890.185665 1056.880629 1413.843845
v 976.492354 1056.880629 1378.094493
v 1012.241788 1056.880629 1291.787845
v 824.129484 1094.298537 1291.787845
v 843.476863 1094.298537 1338.496729
v 890.185665 1094.298537 1357.844067
v 936.894590 1094.298537 1338.496729
v 956.241846 1094.298537 1291.787845
v 890.185665 1107.437926 1291.787845
vt 0.375000 0.500000
vt 0.500000 0.500000
vt 0.625000 0.500000
vt 0.750000 0.500000
vt 0.875000 0.500000
vt 0.375000 0.625000
vt 0.500000 0.625000
vt 0.625000 0.625000
vt 0.750000 0.625000
vt 0.875000 0.625000
vt 0.375000 0.750000
vt 0.500000 0.750000
vt 0.625000 0.750000
vt 0.750000 0.750000
vt 0.875000 0.750000
vt 0.375000 0.875000
vt 0.500000 0.875000
vt 0.625000 0.875000
vt 0.750000 0.875000
vt 0.875000 0.875000
vt 0.437500 1.000000
vt 0.562500 1.000000
vt 0.687500 1.000000
vt 0.812500 1.000000
vn -0.908663 0.180745 0.376380
vn -0.908663 0.180745 0.376380
vn -0.908663 0.180745 0.376380
vn -0.908663 0.180745 0.376380
vn -0.376381 0.180745 0.908663
vn -0.376381 0.180745 0.908663
vn -0.376381 0.180745 0.908663
vn -0.376381 0.180745 0.908663
vn 0.376380 0.180745 0.908664
vn 0.376380 0.180745 0.908664
vn 0.376380 0.180745 0.908664
vn 0.376380 0.180745 0.908664
vn 0.908663 0.180745 0.376380
vn 0.908663 0.180745 0.376380
vn 0.908663 0.180745 0.376380
vn 0.908663 0.180745 0.376380
vn -0.786151 0.525288 0.325635
vn -0.786151 0.525288 0.325635
vn -0.786151 0.525288 0.325635
vn -0.786151 0.525288 0.325635
vn -0.325635 0.525289 0.786151
vn -0.325635 0.525289 0.786151
vn -0.325635 0.525289 0.786151
vn -0.325635 0.525289 0.786151
vn 0.325634 0.525290 0.786151
vn 0.325634 0.525290 0.786151
vn 0.325634 0.525290 0.786151
vn 0.325634 0.525290 0.786151
vn 0.786151 0.525289 0.325634
vn 0.786151 0.525289 0.325634
vn 0.786151 0.525289 0.325635
vn 0.786151 0.525289 0.325635
vn -0.541419 0.810291 0.224263
vn -0.541419 0.810291 0.224263
vn -0.541419 0.810291 0.224263
vn -0.541419 0.810291 0.224263
vn -0.224263 0.810290 0.541420
vn -0.224263 0.810290 0.541420
vn -0.224263 0.810290 0.541420
vn -0.224263 0.810290 0.541420
vn 0.224263 0.810290 0.541420
vn 0.224263 0.810290 0.541420
vn 0.224263 0.810290 0.541420
vn 0.224263 0.810290 0.541420
vn 0.541420 0.810291 0.224263
vn 0.541420 0.810291 0.224263
vn 0.541420 0.810291 0.224263
vn 0.541420 0.810291 0.224263
vn -0.194456 0.977599 0.080546
vn -0.194456 0.977599 0.080546
vn -0.194456 0.977599 0.080546
vn -0.080546 0.977599 0.194457
vn -0.080546 0.977599 0.194457
vn -0.080546 0.977599 0.194457
vn 0.080546 0.977598 0.194457
vn 0.080546 0.977598 0.194457
vn 0.080546 0.977598 0.194457
vn 0.194456 0.977599 0.080545
vn 0.194456 0.977599 0.080545
vn 0.194456 0.977599 0.080545
vn 0.000000 0.000000 -1.000000
vn 0.000000 0.000000 -1.000000
vn 0.000000 0.000000 -1.000000
vn 0.000000 0.000000 -1.000000
vn 0.000000 0.000000 -1.000000
vn 0.000000 0.000000 -1.000000
vn 0.000000 0.000000 -1.000000
vn 0.000000 0.000000 -1.000000
vn 0.000000 0.000000 -1.000000
vn 0.000000 0.000000 -1.000000
vn 0.000000 0.000000 -1.000000
vn 0.000000 0.000000 -1.000000
vn 0.000000 0.000000 -1.000000
vn 0.000000 0.000000 -1.000000
vn 0.000000 0.000000 -1.000000
vn 0.000000 -1.000000 0.000000
vn 0.000000 -1.000000 0.000000
vn 0.000000 -1.000000 0.000000
vn 0.000000 -1.000000 0.000000
vn 0.000000 -1.000000 0.000000
vn 0.000000 -1.000000 0.000000
vn 0.000000 -1.000000 0.000000
s off
g Toit
usemtl initialShadingGroup
f 1/1/1 2/2/2 7/7/3 6/6/4
f 2/2/5 3/3/6 8/8/7 7/7/8
f 3/3/9 4/4/10 9/9/11 8/8/12
f 4/4/13 5/5/14 10/10/15 9/9/16
f 6/6/17 7/7/18 12/12/19 11/11/20
f 7/7/21 8/8/22 13/13/23 12/12/24
f 8/8/25 9/9/26 14/14/27 13/13/28
f 9/9/29 10/10/30 15/15/31 14/14/32
f 11/11/33 12/12/34 17/17/35 16/16/36
f 12/12/37 13/13/38 18/18/39 17/17/40
f 13/13/41 14/14/42 19/19/43 18/18/44
f 14/14/45 15/15/46 20/20/47 19/19/48
f 16/16/49 17/17/50 21/21/51
f 17/17/52 18/18/53 21/22/54
f 18/18/55 19/19/56 21/23/57
f 19/19/58 20/20/59 21/24/60
f 1/1/61 6/6/62 10/10/63 5/5/64
f 6/6/65 11/11/66 15/15/67 10/10/68
f 11/11/69 16/16/70 20/20/71 15/15/72
f 21/24/73 20/20/74 16/16/75
f 2/2/76 1/1/77 5/5/78 4/4/79
f 3/3/80 2/2/81 4/4/82
